<svg id="logo" xmlns="http://www.w3.org/2000/svg" viewBox="0 0 166.4 50.8"><style>.st0{fill:none;stroke:#000;stroke-width:2.4;stroke-linecap:round;stroke-miterlimit:10}</style><path d="M8.4 30.3c-.4 0-.9.1-1.3.2-.5.1-.9.3-1.2.5-.4.2-.7.5-.9.8-.2.3-.4.7-.4 1.2 0 .7.3 1.2.9 1.5.6.3 1.7.6 3.2.7 1.5.1 2.7.5 3.6 1.2s1.3 1.6 1.3 2.9c0 .9-.2 1.7-.6 2.4-.4.7-.9 1.3-1.6 1.8-.7.5-1.4.8-2.4 1.1s-1.9.4-3 .4-2-.1-2.8-.4c-.8-.3-1.4-.7-1.9-1.2s-.8-1-1.1-1.6C.1 41 0 40.4 0 39.7v-.6l2.5-.3v.5c0 .5.1.9.2 1.3s.4.7.7 1c.3.3.7.5 1.2.7.5.2 1.1.3 1.9.3.5 0 1-.1 1.5-.2s1-.3 1.4-.5c.4-.2.8-.6 1.1-.9s.4-.8.4-1.4c0-.8-.3-1.4-1-1.7s-1.7-.5-3-.6c-1.5-.1-2.7-.5-3.6-1.1-.9-.6-1.3-1.6-1.3-2.9 0-.7.2-1.4.5-2.1.3-.6.8-1.2 1.4-1.6.6-.5 1.3-.8 2.1-1.1s1.7-.4 2.7-.4c1 0 1.8.1 2.5.4.7.3 1.3.6 1.8 1s.8.9 1 1.5c.2.5.3 1.1.3 1.7v.3l-2.3.3V33c0-.8-.3-1.5-.9-2-.6-.5-1.5-.7-2.7-.7zm11.7 12.9h.4l4.9-14.7H30l-1.2 14.7h.4l4.8-15 2.2.7L31 44.4h-4.5l1.2-14.7h-.4l-5 14.7h-4.5l1.4-15.9h2.3l-1.4 14.7zm20.3-6c0 .2-.1.4-.1.6v.7c0 1.2.3 2.1 1 2.9.7.8 1.8 1.1 3.3 1.1.7 0 1.4-.1 2-.3.6-.2 1.1-.4 1.5-.7.4-.3.8-.7 1.1-1.1.3-.4.6-.8.8-1.3l2 1.2c-.3.6-.7 1.2-1.1 1.7s-1 1-1.6 1.4c-.6.4-1.3.7-2.1 1s-1.7.4-2.8.4c-1 0-1.8-.1-2.6-.4s-1.5-.7-2.1-1.2c-.6-.5-1-1.2-1.3-2-.3-.8-.5-1.7-.5-2.7 0-1.3.2-2.6.6-3.9s1-2.4 1.9-3.3 1.8-1.7 3-2.3c1.2-.6 2.5-.9 4.1-.9 1.1 0 2 .2 2.8.5.8.3 1.4.8 2 1.3.5.6.9 1.2 1.2 1.9.3.7.4 1.5.4 2.2 0 .6-.1 1.1-.2 1.7l-.4 1.5H40.4zm6.7-6.8c-.7 0-1.4.1-2.1.3-.7.2-1.2.5-1.8.9-.5.4-1 .9-1.4 1.4-.4.5-.7 1.1-.9 1.8h10.2c.1-.3.1-.7.1-1 0-1.2-.4-2-1.2-2.6-.7-.5-1.7-.8-2.9-.8zM60 37.2c0 .2-.1.4-.1.6v.7c0 1.2.3 2.1 1 2.9.7.8 1.8 1.1 3.3 1.1.7 0 1.4-.1 2-.3.6-.2 1.1-.4 1.5-.7.4-.3.8-.7 1.1-1.1.3-.4.6-.8.8-1.3l2 1.2c-.3.6-.7 1.2-1.1 1.7s-1 1-1.6 1.4c-.6.4-1.3.7-2.1 1s-1.8.4-2.8.4c-1 0-1.8-.1-2.6-.4s-1.5-.7-2.1-1.2c-.6-.5-1-1.2-1.3-2-.3-.8-.5-1.7-.5-2.7 0-1.3.2-2.6.6-3.9s1-2.4 1.9-3.3 1.8-1.7 3-2.3c1.2-.6 2.5-.9 4.1-.9 1.1 0 2 .2 2.8.5.8.3 1.4.8 2 1.3.5.6.9 1.2 1.2 1.9.3.7.4 1.5.4 2.2 0 .6-.1 1.1-.2 1.7l-.4 1.5H60zm6.7-6.8c-.7 0-1.4.1-2.1.3-.7.2-1.2.5-1.8.9-.5.4-1 .9-1.4 1.4-.4.5-.7 1.1-.9 1.8h10.2c.1-.3.1-.7.1-1 0-1.2-.4-2-1.2-2.6-.7-.5-1.7-.8-2.9-.8zm11.8 20.4H76l4.2-19.9c0-.2 0-.4-.1-.5-.1-.1-.2-.1-.4-.1-.1 0-.2 0-.3.1l-1.8 1.2-1.3-1.9 1.5-1c.6-.4 1.2-.6 2-.6.9 0 1.5.2 2 .7.5.5.8 1.2.8 2v.2h.4c.6-1 1.4-1.7 2.3-2.2.9-.5 2-.8 3.2-.8.9 0 1.7.2 2.4.5s1.4.7 1.9 1.3c.5.5.9 1.2 1.2 2 .3.8.4 1.6.4 2.4 0 1.4-.2 2.8-.6 4-.4 1.3-.9 2.4-1.7 3.4-.7 1-1.7 1.8-2.8 2.3-1.1.6-2.4.9-3.9.9-1.2 0-2.2-.3-3.1-.8s-1.5-1.2-1.8-2.1h-.4l-1.6 8.9zm6.9-8.3c1 0 2-.2 2.8-.6s1.5-1 2.1-1.7c.6-.7 1-1.5 1.3-2.5.3-.9.4-1.9.4-2.9 0-1.4-.4-2.5-1.1-3.2-.7-.7-1.7-1.1-2.9-1.1-1 0-1.9.2-2.7.7-.8.4-1.5 1-2.1 1.8s-1 1.5-1.3 2.5c-.3.9-.5 1.9-.5 2.8 0 1.4.4 2.4 1.1 3.2.6.6 1.6 1 2.9 1zm13.8-5.3c0 .2-.1.4-.1.6v.7c0 1.2.3 2.1 1 2.9.7.8 1.8 1.1 3.3 1.1.7 0 1.4-.1 2-.3.6-.2 1.1-.4 1.5-.7.4-.3.8-.7 1.1-1.1.3-.4.6-.8.8-1.3l2 1.2c-.3.6-.7 1.2-1.1 1.7s-1 1-1.6 1.4c-.6.4-1.3.7-2.1 1s-1.7.4-2.8.4c-1 0-1.8-.1-2.6-.4s-1.5-.7-2.1-1.2c-.6-.5-1-1.2-1.3-2-.3-.8-.5-1.7-.5-2.7 0-1.3.2-2.6.6-3.9s1-2.4 1.9-3.3 1.8-1.7 3-2.3c1.2-.6 2.5-.9 4.1-.9 1.1 0 2 .2 2.8.5.8.3 1.4.8 2 1.3.5.6.9 1.2 1.2 1.9.3.7.4 1.5.4 2.2 0 .6-.1 1.1-.2 1.7l-.4 1.5H99.2zm6.7-6.8c-.7 0-1.4.1-2.1.3-.7.2-1.2.5-1.8.9-.5.4-1 .9-1.4 1.4-.4.5-.7 1.1-.9 1.8h10.2c.1-.3.1-.7.1-1 0-1.2-.4-2-1.2-2.6-.8-.5-1.7-.8-2.9-.8zm15.5.9c.1-.3 0-.5-.1-.6s-.3-.2-.5-.2-.3.1-.5.2l-2.9 2-1.3-1.9 2.8-1.9c.7-.5 1.5-.7 2.2-.7.7 0 1.2.2 1.7.6.5.4.8 1 .8 1.8h.4c.6-.9 1.3-1.5 2.1-1.8s1.6-.5 2.4-.5c1.5 0 2.7.4 3.6 1.3.9.9 1.3 2.1 1.3 3.5 0 .6-.1 1.1-.2 1.7l-2.7.2c.1-.5.2-1 .2-1.3 0-1-.3-1.8-.8-2.3-.6-.5-1.3-.7-2.2-.7-.6 0-1.2.1-1.7.4-.5.2-1 .6-1.4 1-.4.4-.7.9-1 1.5-.3.6-.5 1.1-.6 1.7l-1.5 7.1h3.8v2.3h-10.2v-2.3h3.9l2.4-11.1z" id="sweeper"/><g id="broom_thick"><path class="st0" d="M145.2 43.2c-2.1-.6-3-3.1-3-4.8m0-2.5v2.5m8 4.8c-2.1-.6-3-3.1-3-4.8m0-2.5v2.5m8 4.8c-2.1-.6-3-3.1-3-4.8m0-2.5v2.5m8 4.8c-2.1-.6-3-3.1-3-4.8m0-2.5v2.5m8 4.8c-2.1-.6-3-3.1-3-4.8m0-2.5v2.5" id="bristles_1_"/><path id="base_1_" class="st0" d="M152.3 25.8c-5.6 0-10.1 4.5-10.1 10.1h20v-.1c0-5.5-4.5-10-9.9-10z"/><path id="handle_1_" d="M156.7 0l-5.5 25.6 2.3.5L159.1 0h-2.4z"/></g></svg>